0
SECTION
2
HEADER
9
$INSUNITS
70
4
0
ENDSEC
0
SECTION
2
TABLES
0
TABLE
2
LTYPE
0
LTYPE
72
65
70
64
2
CONTINUOUS
3
______
73
0
40
0
0
ENDTAB
0
TABLE
2
LAYER
0
ENDTAB
0
ENDSEC
0
SECTION
2
ENTITIES
0
LINE
8
0
10
142.318789
20
-161.956411
11
126.4051561
21
-112.9792849
0
LINE
8
0
10
127.6892351
20
-110.4591379
11
149.2341825
21
-103.4587602
0
LINE
8
0
10
150.5842192
20
-101.2007008
11
149.6517345
21
-96.0448801
0
LINE
8
0
10
151.341459
20
-93.7083976
11
169.1506187
21
-91.2054834
0
LINE
8
0
10
170.8608516
20
-89.0115153
11
170.1623952
21
-82.503885
0
LINE
8
0
10
171.9766629
20
-80.2980635
11
190.1896759
21
-78.7046314
0
LINE
8
0
10
192.2956929
20
-80.1788378
11
192.8344332
21
-82.187178
0
LINE
8
0
10
194.7661388
20
-83.668995
11
213.2319329
21
-83.668995
0
LINE
8
0
10
215.2319329
20
-85.668995
11
215.2319329
21
-89.668995
0
LINE
8
0
10
217.2319329
20
-91.668995
11
255.431933
21
-91.668995
0
LINE
8
0
10
257.431933
20
-93.668995
11
257.431933
21
-146.2334343
0
LINE
8
0
10
257.6130559
20
-147.0651108
11
264.7946147
21
-162.7711841
0
LINE
8
0
10
264.9554167
20
-163.0578933
11
276.0470528
21
-179.50192
0
LINE
8
0
10
275.5073635
20
-182.2783809
11
261.3686553
21
-191.81506
0
LINE
8
0
10
258.6236365
20
-191.3206279
11
248.3646447
21
-176.9797891
0
LINE
8
0
10
247.6218698
20
-176.3493321
11
232.4498792
21
-168.874895
0
LINE
8
0
10
231.566021
20
-168.668995
11
214.2319329
21
-168.668995
0
LINE
8
0
10
212.2319329
20
-166.668995
11
212.2319329
21
-163.2338381
0
LINE
8
0
10
210.1681405
20
-161.2348557
11
144.2846944
21
-163.3373594
0
ARC
8
0
10
128.3072691
20
-112.3612509
40
2
50
108.0000006
51
198.0000006
0
ARC
8
0
10
148.6161485
20
-101.5566472
40
2
50
288.0000006
51
10.251727
0
ARC
8
0
10
151.6198052
20
-95.6889337
40
2
50
97.9999997
51
190.251727
0
ARC
8
0
10
168.8722726
20
-89.2249473
40
2
50
277.9999997
51
6.1260419
0
ARC
8
0
10
172.1509743
20
-82.290453
40
2
50
94.9999976
51
186.1260419
0
ARC
8
0
10
190.3639873
20
-80.6970208
40
2
50
15.0161615
51
94.9999976
0
ARC
8
0
10
194.7661388
20
-81.668995
40
2
50
195.0161615
51
270
0
ARC
8
0
10
213.2319329
20
-85.668995
40
2
50
0
51
90
0
ARC
8
0
10
217.2319329
20
-89.668995
40
2
50
180
51
270
0
ARC
8
0
10
255.431933
20
-93.668995
40
2
50
0
51
90
0
ARC
8
0
10
259.431933
20
-146.2334343
40
2
50
180
51
204.5721186
0
ARC
8
0
10
266.6134919
20
-161.9395075
40
2
50
204.5721186
51
213.999999
0
ARC
8
0
10
274.3889777
20
-180.6203058
40
2
50
303.999999
51
33.999999
0
ARC
8
0
10
260.2502695
20
-190.1569848
40
2
50
215.5787598
51
303.999999
0
ARC
8
0
10
246.7380116
20
-178.1434321
40
2
50
35.5787598
51
63.7729702
0
ARC
8
0
10
231.566021
20
-170.668995
40
2
50
63.7729702
51
90
0
ARC
8
0
10
214.2319329
20
-166.668995
40
2
50
180
51
270
0
ARC
8
0
10
210.2319329
20
-163.2338381
40
2
50
0
51
91.8278276
0
ARC
8
0
10
144.220902
20
-161.338377
40
2
50
198.0000006
51
271.8278276
0
ENDSEC
0
EOF