0
SECTION
2
HEADER
9
$INSUNITS
70
4
0
ENDSEC
0
SECTION
2
TABLES
0
TABLE
2
LTYPE
0
LTYPE
72
65
70
64
2
CONTINUOUS
3
______
73
0
40
0
0
ENDTAB
0
TABLE
2
LAYER
0
ENDTAB
0
ENDSEC
0
SECTION
2
ENTITIES
0
LINE
8
0
10
142.318789
20
-161.956411
11
126.4051561
21
-112.9792849
0
LINE
8
0
10
127.6892351
20
-110.4591379
11
149.2341825
21
-103.4587602
0
LINE
8
0
10
150.5842192
20
-101.2007008
11
149.6517345
21
-96.0448801
0
LINE
8
0
10
151.341459
20
-93.7083976
11
169.1506187
21
-91.2054834
0
LINE
8
0
10
170.8608516
20
-89.0115153
11
170.1623952
21
-82.503885
0
LINE
8
0
10
171.9766629
20
-80.2980635
11
190.1896759
21
-78.7046314
0
LINE
8
0
10
192.2956929
20
-80.1788378
11
192.8344332
21
-82.187178
0
LINE
8
0
10
194.7661388
20
-83.668995
11
213.2319329
21
-83.668995
0
LINE
8
0
10
215.2319329
20
-85.668995
11
215.2319329
21
-89.668995
0
LINE
8
0
10
217.2319329
20
-91.668995
11
255.431933
21
-91.668995
0
LINE
8
0
10
257.431933
20
-93.668995
11
257.431933
21
-146.2334343
0
LINE
8
0
10
257.6130559
20
-147.0651108
11
264.7946147
21
-162.7711841
0
LINE
8
0
10
264.9554167
20
-163.0578933
11
276.0470528
21
-179.50192
0
LINE
8
0
10
275.5073635
20
-182.2783809
11
261.3686553
21
-191.81506
0
LINE
8
0
10
258.6236365
20
-191.3206279
11
248.3646447
21
-176.9797891
0
LINE
8
0
10
247.6218698
20
-176.3493321
11
232.4498792
21
-168.874895
0
LINE
8
0
10
231.566021
20
-168.668995
11
214.2319329
21
-168.668995
0
LINE
8
0
10
212.2319329
20
-166.668995
11
212.2319329
21
-163.2338381
0
LINE
8
0
10
210.1681405
20
-161.2348557
11
144.2846944
21
-163.3373594
0
ARC
8
0
10
128.3072691
20
-112.3612509
40
2
50
108.0000006
51
198.0000006
0
ARC
8
0
10
148.6161485
20
-101.5566472
40
2
50
288.0000006
51
10.251727
0
ARC
8
0
10
151.6198052
20
-95.6889337
40
2
50
97.9999997
51
190.251727
0
ARC
8
0
10
168.8722726
20
-89.2249473
40
2
50
277.9999997
51
6.1260419
0
ARC
8
0
10
172.1509743
20
-82.290453
40
2
50
94.9999976
51
186.1260419
0
ARC
8
0
10
190.3639873
20
-80.6970208
40
2
50
15.0161615
51
94.9999976
0
ARC
8
0
10
194.7661388
20
-81.668995
40
2
50
195.0161615
51
270
0
ARC
8
0
10
213.2319329
20
-85.668995
40
2
50
0
51
90
0
ARC
8
0
10
217.2319329
20
-89.668995
40
2
50
180
51
270
0
ARC
8
0
10
255.431933
20
-93.668995
40
2
50
0
51
90
0
ARC
8
0
10
259.431933
20
-146.2334343
40
2
50
180
51
204.5721186
0
ARC
8
0
10
266.6134919
20
-161.9395075
40
2
50
204.5721186
51
213.999999
0
ARC
8
0
10
274.3889777
20
-180.6203058
40
2
50
303.999999
51
33.999999
0
ARC
8
0
10
260.2502695
20
-190.1569848
40
2
50
215.5787598
51
303.999999
0
ARC
8
0
10
246.7380116
20
-178.1434321
40
2
50
35.5787598
51
63.7729702
0
ARC
8
0
10
231.566021
20
-170.668995
40
2
50
63.7729702
51
90
0
ARC
8
0
10
214.2319329
20
-166.668995
40
2
50
180
51
270
0
ARC
8
0
10
210.2319329
20
-163.2338381
40
2
50
0
51
91.8278276
0
ARC
8
0
10
144.220902
20
-161.338377
40
2
50
198.0000006
51
271.8278276
0
LINE
8
0
10
144.2276457
20
-160.550115
11
160.8711347
21
-155.1423176
0
LINE
8
0
10
160.8711347
20
-155.1423176
11
155.7723543
21
-139.449885
0
LINE
8
0
10
155.7723543
20
-139.449885
11
139.1288653
21
-144.8576824
0
LINE
8
0
10
139.1288653
20
-144.8576824
11
144.2276457
21
-160.550115
0
LINE
8
0
10
138.9743568
20
-144.3821542
11
155.6178458
21
-138.9743568
0
LINE
8
0
10
155.6178458
20
-138.9743568
11
150.5190654
21
-123.2819242
0
LINE
8
0
10
150.5190654
20
-123.2819242
11
133.8755764
21
-128.6897216
0
LINE
8
0
10
133.8755764
20
-128.6897216
11
138.9743568
21
-144.3821542
0
LINE
8
0
10
133.7210679
20
-128.2141934
11
150.3645569
21
-122.806396
0
LINE
8
0
10
150.3645569
20
-122.806396
11
145.2657765
21
-107.1139634
0
LINE
8
0
10
145.2657765
20
-107.1139634
11
128.6222875
21
-112.5217608
0
LINE
8
0
10
128.6222875
20
-112.5217608
11
133.7210679
21
-128.2141934
0
LINE
8
0
10
158.8510013
20
-145.9214047
11
176.1806925
21
-143.4858754
0
LINE
8
0
10
176.1806925
20
-143.4858754
11
173.8843363
21
-127.1464523
0
LINE
8
0
10
173.8843363
20
-127.1464523
11
156.5546451
21
-129.5819816
0
LINE
8
0
10
156.5546451
20
-129.5819816
11
158.8510013
21
-145.9214047
0
LINE
8
0
10
156.4850586
20
-129.0868475
11
173.8147498
21
-126.6513182
0
LINE
8
0
10
173.8147498
20
-126.6513182
11
171.5183936
21
-110.3118951
0
LINE
8
0
10
171.5183936
20
-110.3118951
11
154.1887024
21
-112.7474244
0
LINE
8
0
10
154.1887024
20
-112.7474244
11
156.4850586
21
-129.0868475
0
LINE
8
0
10
154.1191159
20
-112.2522903
11
171.4488071
21
-109.816761
0
LINE
8
0
10
171.4488071
20
-109.816761
11
169.1524509
21
-93.4773379
0
LINE
8
0
10
169.1524509
20
-93.4773379
11
151.8227597
21
-95.9128672
0
LINE
8
0
10
151.8227597
20
-95.9128672
11
154.1191159
21
-112.2522903
0
LINE
8
0
10
176.7836304
20
-132.8290049
11
194.2170376
21
-131.3037794
0
LINE
8
0
10
194.2170376
20
-131.3037794
11
192.7789678
21
-114.8665669
0
LINE
8
0
10
192.7789678
20
-114.8665669
11
175.3455606
21
-116.3917924
0
LINE
8
0
10
175.3455606
20
-116.3917924
11
176.7836304
21
-132.8290049
0
LINE
8
0
10
175.3019828
20
-115.893695
11
192.73539
21
-114.3684695
0
LINE
8
0
10
192.73539
20
-114.3684695
11
191.2973202
21
-97.931257
0
LINE
8
0
10
191.2973202
20
-97.931257
11
173.863913
21
-99.4564825
0
LINE
8
0
10
173.863913
20
-99.4564825
11
175.3019828
21
-115.893695
0
LINE
8
0
10
173.8203352
20
-98.9583851
11
191.2537424
21
-97.4331596
0
LINE
8
0
10
191.2537424
20
-97.4331596
11
189.8156726
21
-80.9959471
0
LINE
8
0
10
189.8156726
20
-80.9959471
11
172.3822654
21
-82.5211726
0
LINE
8
0
10
172.3822654
20
-82.5211726
11
173.8203352
21
-98.9583851
0
LINE
8
0
10
195.4819329
20
-136.418995
11
212.9819329
21
-136.418995
0
LINE
8
0
10
212.9819329
20
-136.418995
11
212.9819329
21
-119.918995
0
LINE
8
0
10
212.9819329
20
-119.918995
11
195.4819329
21
-119.918995
0
LINE
8
0
10
195.4819329
20
-119.918995
11
195.4819329
21
-136.418995
0
LINE
8
0
10
195.4819329
20
-119.418995
11
212.9819329
21
-119.418995
0
LINE
8
0
10
212.9819329
20
-119.418995
11
212.9819329
21
-102.918995
0
LINE
8
0
10
212.9819329
20
-102.918995
11
195.4819329
21
-102.918995
0
LINE
8
0
10
195.4819329
20
-102.918995
11
195.4819329
21
-119.418995
0
LINE
8
0
10
195.4819329
20
-102.418995
11
212.9819329
21
-102.418995
0
LINE
8
0
10
212.9819329
20
-102.418995
11
212.9819329
21
-85.918995
0
LINE
8
0
10
212.9819329
20
-85.918995
11
195.4819329
21
-85.918995
0
LINE
8
0
10
195.4819329
20
-85.918995
11
195.4819329
21
-102.418995
0
LINE
8
0
10
213.481933
20
-144.418995
11
230.981933
21
-144.418995
0
LINE
8
0
10
230.981933
20
-144.418995
11
230.981933
21
-127.918995
0
LINE
8
0
10
230.981933
20
-127.918995
11
213.481933
21
-127.918995
0
LINE
8
0
10
213.481933
20
-127.918995
11
213.481933
21
-144.418995
0
LINE
8
0
10
213.481933
20
-127.418995
11
230.981933
21
-127.418995
0
LINE
8
0
10
230.981933
20
-127.418995
11
230.981933
21
-110.918995
0
LINE
8
0
10
230.981933
20
-110.918995
11
213.481933
21
-110.918995
0
LINE
8
0
10
213.481933
20
-110.918995
11
213.481933
21
-127.418995
0
LINE
8
0
10
213.481933
20
-110.418995
11
230.981933
21
-110.418995
0
LINE
8
0
10
230.981933
20
-110.418995
11
230.981933
21
-93.918995
0
LINE
8
0
10
230.981933
20
-93.918995
11
213.481933
21
-93.918995
0
LINE
8
0
10
213.481933
20
-93.918995
11
213.481933
21
-110.418995
0
LINE
8
0
10
214.4819329
20
-166.418995
11
231.9819329
21
-166.418995
0
LINE
8
0
10
231.9819329
20
-166.418995
11
231.9819329
21
-149.918995
0
LINE
8
0
10
231.9819329
20
-149.918995
11
214.4819329
21
-149.918995
0
LINE
8
0
10
214.4819329
20
-149.918995
11
214.4819329
21
-166.418995
0
LINE
8
0
10
233.6330011
20
-166.3454365
11
249.0845839
21
-174.5611888
0
LINE
8
0
10
249.0845839
20
-174.5611888
11
256.8308647
21
-159.9925535
0
LINE
8
0
10
256.8308647
20
-159.9925535
11
241.3792819
21
-151.7768012
0
LINE
8
0
10
241.3792819
20
-151.7768012
11
233.6330011
21
-166.3454365
0
LINE
8
0
10
250.5769242
20
-175.27137
11
260.3628
21
-189.7795275
0
LINE
8
0
10
260.3628
20
-189.7795275
11
274.04192
21
-180.5528446
0
LINE
8
0
10
274.04192
20
-180.5528446
11
264.2560442
21
-166.0446871
0
LINE
8
0
10
264.2560442
20
-166.0446871
11
250.5769242
21
-175.27137
0
ENDSEC
0
EOF