0
SECTION
2
HEADER
9
$INSUNITS
70
4
0
ENDSEC
0
SECTION
2
TABLES
0
TABLE
2
LTYPE
0
LTYPE
72
65
70
64
2
CONTINUOUS
3
______
73
0
40
0
0
ENDTAB
0
TABLE
2
LAYER
0
ENDTAB
0
ENDSEC
0
SECTION
2
ENTITIES
0
LINE
8
0
10
142.7830568
20
-163.3852804
11
163.7063001
21
-156.5869065
0
LINE
8
0
10
163.7063001
20
-156.5869065
11
160.8861867
21
-147.90749
0
LINE
8
0
10
125.7871221
20
-111.0771719
11
142.7830568
21
-163.3852804
0
LINE
8
0
10
146.7103654
20
-104.278798
11
153.7875844
21
-126.0602383
0
LINE
8
0
10
146.7103654
20
-104.278798
11
125.7871221
21
-111.0771719
0
LINE
8
0
10
160.8861867
20
-147.90749
11
178.7219351
21
-145.4008391
0
LINE
8
0
10
178.7219351
20
-145.4008391
11
177.2665658
21
-135.0453482
0
LINE
8
0
10
149.2815171
20
-93.9979035
11
153.7875844
21
-126.0602383
0
LINE
8
0
10
170.8624019
20
-90.964908
11
149.2815171
21
-93.9979035
0
LINE
8
0
10
177.2665658
20
-135.0453482
11
193.2319329
21
-133.6485596
0
LINE
8
0
10
193.2319329
20
-94.2281259
11
191.8610103
21
-78.5584086
0
LINE
8
0
10
191.8610103
20
-78.5584086
11
169.9447269
21
-80.4758349
0
LINE
8
0
10
169.9447269
20
-80.4758349
11
170.8624019
21
-90.964908
0
LINE
8
0
10
193.2319329
20
-138.668995
11
211.231933
21
-138.668995
0
LINE
8
0
10
193.2319329
20
-133.6485596
11
193.2319329
21
-138.668995
0
LINE
8
0
10
215.2319329
20
-91.668995
11
215.2319329
21
-83.668995
0
LINE
8
0
10
215.2319329
20
-83.668995
11
193.2319329
21
-83.668995
0
LINE
8
0
10
193.2319329
20
-83.668995
11
193.2319329
21
-94.2281259
0
LINE
8
0
10
211.231933
20
-146.668995
11
233.231933
21
-146.668995
0
LINE
8
0
10
233.231933
20
-146.668995
11
233.231933
21
-91.668995
0
LINE
8
0
10
211.231933
20
-138.668995
11
211.231933
21
-146.668995
0
LINE
8
0
10
233.231933
20
-91.668995
11
215.2319329
21
-91.668995
0
LINE
8
0
10
212.2319329
20
-168.668995
11
233.2103566
21
-168.668995
0
LINE
8
0
10
234.2319329
20
-160.426387
11
234.2319329
21
-147.668995
0
LINE
8
0
10
234.2319329
20
-147.668995
11
212.2319329
21
-147.668995
0
LINE
8
0
10
212.2319329
20
-147.668995
11
212.2319329
21
-168.668995
0
LINE
8
0
10
233.2103566
20
-168.668995
11
249.1129065
21
-177.1245308
0
LINE
8
0
10
253.8845751
20
-170.3263409
11
259.8738078
21
-159.0622325
0
LINE
8
0
10
259.8738078
20
-159.0622325
11
240.4489608
21
-148.7338581
0
LINE
8
0
10
240.4489608
20
-148.7338581
11
234.2319329
21
-160.426387
0
LINE
8
0
10
249.1129065
20
-177.1245308
11
259.7556495
21
-192.9030461
0
LINE
8
0
10
259.7556495
20
-192.9030461
11
277.1654386
21
-181.1599951
0
LINE
8
0
10
277.1654386
20
-181.1599951
11
264.8631947
21
-162.9211685
0
LINE
8
0
10
264.8631947
20
-162.9211685
11
253.8845751
21
-170.3263409
0
ENDSEC
0
EOF